<?xml version="1.0" encoding="UTF-8" standalone="no"?>
<!-- Created with Inkscape (http://www.inkscape.org/) -->

<svg
   xmlns:dc="http://purl.org/dc/elements/1.1/"
   xmlns:cc="http://creativecommons.org/ns#"
   xmlns:rdf="http://www.w3.org/1999/02/22-rdf-syntax-ns#"
   xmlns:svg="http://www.w3.org/2000/svg"
   xmlns="http://www.w3.org/2000/svg"
   xmlns:sodipodi="http://sodipodi.sourceforge.net/DTD/sodipodi-0.dtd"
   xmlns:inkscape="http://www.inkscape.org/namespaces/inkscape"
   width="210mm"
   height="297mm"
   id="svg2"
   version="1.1"
   inkscape:version="0.48.3.1 r9886"
   inkscape:export-filename="/var/www/FxOS/mortal-kamper/assets/img/logo-bg.png"
   inkscape:export-xdpi="9.5100002"
   inkscape:export-ydpi="9.5100002"
   sodipodi:docname="Nouveau document 1">
  <defs
     id="defs4" />
  <sodipodi:namedview
     id="base"
     pagecolor="#ffffff"
     bordercolor="#666666"
     borderopacity="1.0"
     inkscape:pageopacity="0.0"
     inkscape:pageshadow="2"
     inkscape:zoom="0.49497475"
     inkscape:cx="231.08369"
     inkscape:cy="520"
     inkscape:document-units="px"
     inkscape:current-layer="layer1"
     showgrid="false"
     inkscape:window-width="1366"
     inkscape:window-height="716"
     inkscape:window-x="0"
     inkscape:window-y="0"
     inkscape:window-maximized="1" />
  <metadata
     id="metadata7">
    <rdf:RDF>
      <cc:Work
         rdf:about="">
        <dc:format>image/svg+xml</dc:format>
        <dc:type
           rdf:resource="http://purl.org/dc/dcmitype/StillImage" />
        <dc:title></dc:title>
      </cc:Work>
    </rdf:RDF>
  </metadata>
  <g
     inkscape:label="Calque 1"
     inkscape:groupmode="layer"
     id="layer1">
    <rect
       style="fill:#a02c2c;fill-opacity:1;stroke:none"
       id="rect3029"
       width="711.1474"
       height="723.26923"
       x="22.223356"
       y="100.79849" />
    <g
       id="g3023"
       transform="translate(925.29973,-12.121831)"
       inkscape:export-filename="/var/www/FxOS/mortal-kamper/assets/img/logo.png"
       inkscape:export-xdpi="9.5100002"
       inkscape:export-ydpi="9.5100002">
      <path
         id="path2987"
         d="m -547.53125,125.875 c -1.48718,0 -2.98603,0.0125 -4.46875,0.0313 -2.96544,0.0376 -5.89682,0.10673 -8.84375,0.21875 -4.42039,0.16803 -8.84255,0.41699 -13.21875,0.75 -2.91748,0.22201 -5.82204,0.48704 -8.71875,0.78125 -1.44836,0.14711 -2.90075,0.30376 -4.34375,0.46875 -2.87573,0.3288 -5.73998,0.69461 -8.59375,1.09375 -0.0102,0.001 -0.0211,-0.001 -0.0313,0 -2.85362,0.39963 -5.70049,0.84342 -8.53125,1.3125 -1.42043,0.23538 -2.86674,0.46605 -4.28125,0.71875 -7.06222,1.26226 -14.06266,2.75202 -20.96875,4.4375 -1.3832,0.33758 -2.77965,0.67703 -4.15625,1.03125 -1.36679,0.35183 -2.73357,0.72563 -4.09375,1.09375 -1.36988,0.37075 -2.76194,0.73784 -4.125,1.125 -4.07939,1.15909 -8.14003,2.41466 -12.15625,3.71875 -4.02571,1.30719 -8.00955,2.67517 -11.96875,4.125 -5.27888,1.93307 -10.50193,4.00716 -15.65625,6.1875 -1.2886,0.5451 -2.59447,1.09598 -3.875,1.65625 -2.55219,1.1169 -5.10553,2.261 -7.625,3.4375 -5.05624,2.3611 -10.04969,4.84176 -14.96875,7.4375 -1.22975,0.64892 -2.43536,1.30545 -3.65625,1.96875 -2.44182,1.32664 -4.87553,2.67901 -7.28125,4.0625 -2.40568,1.38346 -4.78757,2.81059 -7.15625,4.25 -4.73743,2.87888 -9.41599,5.87148 -14,8.96875 -4.58393,3.09722 -9.07671,6.28537 -13.5,9.59375 -4.42338,3.30844 -8.77573,6.73761 -13.03125,10.25 -4.25544,3.51233 -8.41963,7.10344 -12.5,10.8125 -2.04023,1.85456 -4.06739,3.75386 -6.0625,5.65625 -2.0005,1.90753 -3.95203,3.82654 -5.90625,5.78125 -9.7452,9.74642 -18.91054,20.05439 -27.4375,30.90625 -1.70543,2.1704 -3.37725,4.35059 -5.03125,6.5625 -0.005,0.007 0.005,0.0246 0,0.0313 -3.30266,4.41736 -6.53286,8.9225 -9.625,13.5 -2.32257,3.43829 -4.58101,6.91241 -6.78125,10.4375 -1.46687,2.35009 -2.90113,4.73746 -4.3125,7.125 -1.41133,2.38751 -2.80131,4.79469 -4.15625,7.21875 -0.67749,1.21204 -1.33678,2.40399 -2,3.625 -0.66766,1.22897 -1.31566,2.44956 -1.96875,3.6875 -1.29767,2.45973 -2.57303,4.94303 -3.8125,7.4375 -1.23947,2.49447 -2.44463,5.00295 -3.625,7.53125 -0.59017,1.26414 -1.17478,2.54007 -1.75,3.8125 -1.72571,3.81733 -3.37957,7.67259 -4.96875,11.5625 -0.52973,1.29664 -1.04817,2.57053 -1.5625,3.875 -0.51797,1.31341 -1.02901,2.61626 -1.53125,3.9375 -0.49882,1.3122 -0.98555,2.61769 -1.46875,3.9375 -0.003,0.009 0.003,0.0221 0,0.0313 -0.96281,2.63054 -1.91241,5.27739 -2.8125,7.9375 -1.80641,5.33877 -3.48291,10.73504 -5.03125,16.1875 -0.3871,1.36312 -0.75431,2.7238 -1.125,4.09375 -0.003,0.01 0.003,0.0216 0,0.0313 -0.36795,1.3603 -0.74209,2.72684 -1.09375,4.09375 -1.77385,6.89275 -3.33638,13.85372 -4.6875,20.90625 -0.26985,1.40852 -0.5286,2.8042 -0.78125,4.21875 -0.002,0.0101 0.002,0.0212 0,0.0313 -0.25072,1.40448 -0.4851,2.80843 -0.71875,4.21875 -0.47259,2.851 -0.91034,5.68832 -1.3125,8.5625 -0.40074,2.86395 -0.76384,5.73895 -1.09375,8.625 -0.16495,1.44302 -0.32168,2.89537 -0.46875,4.34375 -0.29416,2.89677 -0.55928,5.80123 -0.78125,8.71875 -0.11099,1.45876 -0.21973,2.91122 -0.3125,4.375 -0.0936,1.47407 -0.17504,2.92721 -0.25,4.40625 -0.0744,1.46868 -0.1315,2.93278 -0.1875,4.40625 -3.9e-4,0.0104 3.9e-4,0.0209 0,0.0313 -0.11135,2.93665 -0.18132,5.88874 -0.21875,8.84375 -0.0188,1.48272 -0.0313,2.98157 -0.0313,4.46875 0,1.48718 0.0125,2.95478 0.0313,4.4375 3.9e-4,0.0312 -4e-4,0.0625 0,0.0937 0.0379,2.93415 0.10792,5.86523 0.21875,8.78125 0.056,1.47346 0.11306,2.93758 0.1875,4.40625 0.0748,1.47902 0.15658,2.9322 0.25,4.40625 0.0928,1.46376 0.20151,2.91626 0.3125,4.375 0.009,0.11536 0.0224,0.22842 0.0313,0.34375 0.21599,2.80198 0.46741,5.62345 0.75,8.40625 0.14707,1.44835 0.3038,2.86951 0.46875,4.3125 0.32991,2.88599 0.69301,5.76112 1.09375,8.625 3.00547,21.47898 7.97597,42.32456 14.75,62.34375 0.90323,2.66925 1.8461,5.32928 2.8125,7.96875 0.4832,1.31973 0.96993,2.62538 1.46875,3.9375 1.00085,2.6334 2.03066,5.2417 3.09375,7.84375 1.58918,3.88965 3.24304,7.74545 4.96875,11.5625 0.57522,1.27233 1.15983,2.54846 1.75,3.8125 1.18037,2.52812 2.38553,5.03697 3.625,7.53125 1.02943,2.07159 2.08662,4.10857 3.15625,6.15625 0.21825,0.41781 0.43634,0.8332 0.65625,1.25 2.59921,4.9274 5.29764,9.77997 8.125,14.5625 1.41137,2.38733 2.84563,4.74387 4.3125,7.09375 0.73341,1.17492 1.47163,2.36586 2.21875,3.53125 1.49428,2.33081 3.01408,4.61424 4.5625,6.90625 0.63675,0.9427 1.2917,1.87647 1.9375,2.8125 2.49562,3.61661 5.05904,7.20403 7.6875,10.71875 1.65396,2.21165 3.32586,4.39237 5.03125,6.5625 1.70543,2.17018 3.43153,4.30974 5.1875,6.4375 7.02828,8.51764 14.44811,16.69811 22.25,24.5 1.94908,1.94908 3.91114,3.87909 5.90625,5.78125 11.97503,11.41859 24.76162,21.94846 38.28125,31.5625 4.50452,3.20324 9.08845,6.32403 13.75,9.3125 1.16541,0.74714 2.32506,1.48532 3.5,2.21875 12.9309,8.07317 26.43375,15.29392 40.4375,21.625 1.27235,0.57524 2.53197,1.12732 3.8125,1.6875 7.69148,3.36542 15.52762,6.44212 23.5,9.25 1.32724,0.46746 2.63412,0.95463 3.96875,1.40625 4.01296,1.35828 8.04725,2.63079 12.125,3.84375 1.35612,0.4034 2.69944,0.8004 4.0625,1.1875 1.37259,0.38993 2.74548,0.75171 4.125,1.125 1.36988,0.37069 2.71715,0.73959 4.09375,1.09375 6.89243,1.77385 13.85398,3.33638 20.90625,4.6875 1.40847,0.26985 2.80424,0.5286 4.21875,0.78125 2.83897,0.50733 5.66864,0.96889 8.53125,1.40625 1.42624,0.21791 2.84931,0.42463 4.28125,0.625 1.44205,0.20191 2.86478,0.37849 4.3125,0.5625 1.43752,0.18272 2.8695,0.36629 4.3125,0.53125 1.45318,0.16625 2.88513,0.32063 4.34375,0.46875 1.44836,0.14708 2.89015,0.27716 4.34375,0.40625 10.18523,0.9054 20.48549,1.375 30.90625,1.375 1.47744,0 2.96449,-0.0127 4.4375,-0.0313 1.95585,-0.0248 3.92713,-0.0678 5.875,-0.125 1.13137,-0.0332 2.24639,-0.0809 3.375,-0.125 1.51486,-0.0592 3.05274,-0.10877 4.5625,-0.1875 2.75917,-0.14407 5.50838,-0.32266 8.25,-0.53125 0.20878,-0.0159 0.41632,-0.0462 0.625,-0.0625 0.0413,-0.003 0.0837,0.003 0.125,0 1.20796,-0.0946 2.42058,-0.20552 3.625,-0.3125 1.46114,-0.12979 2.91917,-0.25828 4.375,-0.40625 0.32494,-0.033 0.64407,-0.0598 0.96875,-0.0937 1.11352,-0.11635 2.23341,-0.24807 3.34375,-0.375 0.37323,-0.0427 0.75213,-0.0811 1.125,-0.125 1.2011,-0.14128 2.39647,-0.31515 3.59375,-0.46875 0.28248,-0.0362 0.56149,-0.0568 0.84375,-0.0937 1.23586,-0.16164 2.4558,-0.32529 3.6875,-0.5 0.23804,-0.0338 0.48087,-0.0595 0.71875,-0.0937 1.11611,-0.16072 2.23113,-0.32861 3.34375,-0.5 0.35562,-0.0547 0.70724,-0.10043 1.0625,-0.15625 0.93535,-0.14707 1.87966,-0.31417 2.8125,-0.46875 1.13646,-0.18832 2.27357,-0.36308 3.40625,-0.5625 0.8491,-0.14949 1.6843,-0.31305 2.53125,-0.46875 1.44878,-0.26622 2.90137,-0.55947 4.34375,-0.84375 1.45166,-0.28611 2.89869,-0.57073 4.34375,-0.875 1.44178,-0.30358 2.87742,-0.61596 4.3125,-0.9375 1.17024,-0.26225 2.33429,-0.50713 3.5,-0.78125 0.2608,-0.0613 0.52068,-0.1256 0.78125,-0.1875 1.4256,-0.33877 2.83132,-0.70607 4.25,-1.0625 1.42121,-0.35692 2.83586,-0.71925 4.25,-1.09375 1.41164,-0.37396 2.81426,-0.76489 4.21875,-1.15625 1.40669,-0.39186 2.81937,-0.77831 4.21875,-1.1875 1.22016,-0.35686 2.44172,-0.72379 3.65625,-1.09375 0.17619,-0.0537 0.35518,-0.10232 0.53125,-0.15625 1.82039,-0.55772 3.63005,-1.13183 5.4375,-1.71875 0.9545,-0.30987 1.89292,-0.61955 2.84375,-0.9375 0.38337,-0.12822 0.77348,-0.24547 1.15625,-0.375 0.9893,-0.33474 1.9835,-0.68779 2.96875,-1.03125 0.34721,-0.12105 0.68454,-0.25287 1.03125,-0.375 0.10273,-0.0362 0.20982,-0.0575 0.3125,-0.0937 0.91487,-0.32325 1.80744,-0.66927 2.71875,-1 1.36325,-0.49463 2.73857,-0.98872 4.09375,-1.5 1.02279,-0.38588 2.04437,-0.76095 3.0625,-1.15625 0.32379,-0.12571 0.64544,-0.24834 0.96875,-0.375 0.23104,-0.0905 0.45671,-0.19024 0.6875,-0.28125 0.10436,-0.0412 0.20819,-0.0838 0.3125,-0.125 1.00562,-0.3977 1.99903,-0.81189 3,-1.21875 1.33703,-0.54335 2.67139,-1.09666 4,-1.65625 0.15522,-0.0654 0.31364,-0.1219 0.46875,-0.1875 1.17244,-0.49585 2.33423,-0.99159 3.5,-1.5 72.15163,-31.46638 131.44968,-86.92615 167.8125,-156.28125 0.5016,-0.95671 1.00714,-1.91304 1.5,-2.875 0.27677,-0.54028 0.53851,-1.08307 0.8125,-1.625 0.3533,-0.69864 0.71383,-1.3924 1.0625,-2.09375 0.40217,-0.8092 0.79152,-1.62471 1.1875,-2.4375 2.04518,-4.19791 4.0287,-8.45874 5.90625,-12.75 0.15929,-0.36407 0.31068,-0.72902 0.46875,-1.09375 0.67047,-1.54704 1.32041,-3.09754 1.96875,-4.65625 0.65223,-1.56805 1.30787,-3.13909 1.9375,-4.71875 0.15402,-0.38629 0.31609,-0.76928 0.46875,-1.15625 1.09278,-2.77095 2.13376,-5.56946 3.15625,-8.375 0.42093,-1.1546 0.84111,-2.30843 1.25,-3.46875 0.15731,-0.44657 0.31323,-0.89634 0.46875,-1.34375 0.3054,-0.87829 0.60778,-1.77475 0.90625,-2.65625 0.25071,-0.74077 0.5042,-1.47573 0.75,-2.21875 0.0342,-0.10335 0.0596,-0.2091 0.0937,-0.3125 0.50082,-1.51881 0.98856,-3.03443 1.46875,-4.5625 1.02283,-3.25485 2.00945,-6.54807 2.9375,-9.84375 0.31365,-1.11349 0.63479,-2.22572 0.9375,-3.34375 0.1462,-0.5402 0.29386,-1.08375 0.4375,-1.625 0.21979,-0.82791 0.44249,-1.66965 0.65625,-2.5 0.21721,-0.84412 0.41404,-1.68464 0.625,-2.53125 0.41734,-1.67485 0.82601,-3.34681 1.21875,-5.03125 0.70375,-3.01836 1.37616,-6.04548 2,-9.09375 0.0703,-0.34359 0.14946,-0.68729 0.21875,-1.03125 0.0753,-0.37375 0.14462,-0.75081 0.21875,-1.125 0.26267,-1.32673 0.50261,-2.66784 0.75,-4 0.14267,-0.76788 0.29994,-1.54284 0.4375,-2.3125 0.0798,-0.44677 0.14066,-0.89639 0.21875,-1.34375 0.16901,-0.96766 0.33909,-1.93582 0.5,-2.90625 0.0382,-0.2305 0.0873,-0.45684 0.125,-0.6875 0.16735,-1.0222 0.31042,-2.03729 0.46875,-3.0625 0.19178,-1.24262 0.38403,-2.50303 0.5625,-3.75 0.0685,-0.47843 0.15224,-0.95843 0.21875,-1.4375 0.1803,-1.29856 0.33422,-2.60309 0.5,-3.90625 0.17985,-1.41374 0.3686,-2.83095 0.53125,-4.25 0.004,-0.0308 -0.004,-0.0629 0,-0.0937 0.0849,-0.74273 0.16981,-1.47459 0.25,-2.21875 0.0749,-0.69481 0.14799,-1.39771 0.21875,-2.09375 0.10723,-1.05573 0.21482,-2.12897 0.3125,-3.1875 0.0365,-0.39554 0.0586,-0.79157 0.0937,-1.1875 0.047,-0.5292 0.0804,-1.06387 0.125,-1.59375 0.0782,-0.92886 0.17917,-1.8503 0.25,-2.78125 0.12753,-1.67589 0.24028,-3.34875 0.34375,-5.03125 0.10923,-1.77613 0.19903,-3.56044 0.28125,-5.34375 0.0432,-0.93798 0.0893,-1.87257 0.125,-2.8125 0.01,-0.26134 0.0219,-0.51976 0.0313,-0.78125 0.0432,-1.20812 0.063,-2.41372 0.0937,-3.625 0.0377,-1.4875 0.0749,-2.97659 0.0937,-4.46875 0.0188,-1.48272 0.0313,-2.95032 0.0313,-4.4375 0,-4.47198 -0.0812,-8.91307 -0.25,-13.34375 -0.056,-1.47347 -0.11304,-2.93757 -0.1875,-4.40625 -0.075,-1.47904 -0.15643,-2.93218 -0.25,-4.40625 -0.0928,-1.46378 -0.20149,-2.91624 -0.3125,-4.375 -0.11179,-1.46909 -0.24485,-2.91112 -0.375,-4.375 -0.12911,-1.45363 -0.25914,-2.89537 -0.40625,-4.34375 -0.73656,-7.25226 -1.69583,-14.41897 -2.875,-21.53125 -0.2337,-1.41032 -0.46798,-2.81427 -0.71875,-4.21875 -0.002,-0.0101 0.002,-0.0212 0,-0.0313 -0.2527,-1.41455 -0.51135,-2.81023 -0.78125,-4.21875 -1.35137,-7.05253 -2.91333,-14.0135 -4.6875,-20.90625 -0.35172,-1.36691 -0.72574,-2.73345 -1.09375,-4.09375 -0.003,-0.01 0.003,-0.0216 0,-0.0313 -0.37075,-1.36995 -0.73784,-2.73063 -1.125,-4.09375 -1.93849,-6.82511 -4.09603,-13.54196 -6.4375,-20.1875 -0.46427,-1.31803 -0.92646,-2.62687 -1.40625,-3.9375 -0.003,-0.009 0.003,-0.0221 0,-0.0313 -0.48328,-1.31981 -0.96985,-2.6253 -1.46875,-3.9375 -0.50233,-1.32124 -1.01319,-2.62409 -1.53125,-3.9375 -0.51441,-1.30447 -1.03269,-2.57836 -1.5625,-3.875 -3.71212,-9.085 -7.80412,-17.97827 -12.25,-26.65625 -0.63444,-1.2386 -1.25732,-2.45764 -1.90625,-3.6875 -0.65316,-1.23788 -1.30102,-2.45859 -1.96875,-3.6875 -0.66332,-1.22101 -1.35366,-2.41296 -2.03125,-3.625 -0.67757,-1.21203 -1.33952,-2.42205 -2.03125,-3.625 -1.12706,-1.96 -2.27325,-3.90825 -3.4375,-5.84375 -0.26942,-0.44789 -0.54111,-0.89719 -0.8125,-1.34375 -0.71972,-1.18446 -1.45396,-2.35621 -2.1875,-3.53125 -5.13905,-8.23222 -10.57985,-16.22099 -16.375,-23.96875 -1.65422,-2.21191 -3.35684,-4.3921 -5.0625,-6.5625 -3.41126,-4.34075 -6.91965,-8.58071 -10.53125,-12.75 -3.6116,-4.16929 -7.32028,-8.25939 -11.125,-12.25 -1.90236,-1.99531 -3.83197,-3.95697 -5.78125,-5.90625 -1.95445,-1.95471 -3.90552,-3.87372 -5.90625,-5.78125 -5.98592,-5.70707 -12.17862,-11.20025 -18.5625,-16.46875 -4.25598,-3.51239 -8.60742,-6.94156 -13.03125,-10.25 -4.42377,-3.30838 -8.91561,-6.49653 -13.5,-9.59375 -4.58445,-3.09727 -9.26215,-6.08987 -14,-8.96875 -2.3689,-1.43941 -4.75035,-2.86654 -7.15625,-4.25 -2.40592,-1.38349 -4.83923,-2.73586 -7.28125,-4.0625 -1.221,-0.6633 -2.4264,-1.31983 -3.65625,-1.96875 -4.91945,-2.59574 -9.91214,-5.0764 -14.96875,-7.4375 -2.5369,-1.18455 -5.08619,-2.31337 -7.65625,-3.4375 -1.28062,-0.56027 -2.55507,-1.11115 -3.84375,-1.65625 -5.15469,-2.18034 -10.37704,-4.25443 -15.65625,-6.1875 -2.62724,-0.96202 -5.28077,-1.88181 -7.9375,-2.78125 -0.0124,-0.004 -0.0188,-0.0271 -0.0313,-0.0313 -1.3347,-0.45169 -2.65802,-0.87677 -4,-1.3125 -4.03536,-1.31023 -8.0884,-2.5549 -12.1875,-3.71875 -14.98468,-4.25606 -30.38387,-7.51431 -46.125,-9.71875 -0.0102,-0.001 -0.0211,0.001 -0.0313,0 -0.16693,-0.0234 -0.333,-0.0394 -0.5,-0.0625 -2.54334,-0.35214 -5.0955,-0.67243 -7.65625,-0.96875 -0.14574,-0.0169 -0.2917,-0.0458 -0.4375,-0.0625 -0.0103,-0.001 -0.021,0.001 -0.0313,0 -1.44303,-0.16499 -2.86412,-0.32164 -4.3125,-0.46875 -2.78286,-0.28264 -5.60423,-0.53397 -8.40625,-0.75 -4.48977,-0.34614 -8.99494,-0.60881 -13.53125,-0.78125 -2.91604,-0.11085 -5.84709,-0.1808 -8.78125,-0.21875 -0.0209,-2.7e-4 -0.0416,2.6e-4 -0.0625,0 -1.49306,-0.019 -2.97118,-0.0313 -4.46875,-0.0313 z m 34,18 c 3.72708,0.36123 7.43547,0.76513 11.125,1.25 40.97253,36.81732 43.89119,73.43193 49.46875,105.75 0,0 32.136,19.2275 45.125,32.4375 24.871,25.293 42.92425,56.7155 60.65625,87.4375 18.187,31.511 26.81425,68.28275 46.53125,98.71875 31.08839,47.98973 23.26767,96.81511 49.5625,145.84375 -36.34064,73.75749 -99.55134,131.88942 -176.875,161.59375 l -249.25,-134.25 c -11.289,-30.161 -85.18075,-17.00275 -128.34375,-25.09375 -21.096,-15.309 -26.80425,-38.319 -25.40625,-64.875 38.744,-13.352 137.27375,-34.15725 134.34375,-76.15625 -3.4223,-49.014 -89.344,-64.93575 -135.75,-73.34375 0,0 -17.07525,-1.40705 -16.90625,-26.78125 0.14296,-21.415 19.84225,-26.20725 11.28125,-31.03125 -6.6842,-7.1894 4.2662,-23.3175 12.3125,-28.9375 30.73,-21.464 48.7595,-23.1305 74.0625,-34.1875 18.682,-8.1631 27.4835,-27.454 46.1875,-35.625 39.665,-17.329 128.34375,-19.71875 128.34375,-19.71875 20.29311,-13.03397 45.74027,-46.41172 63.53125,-83.03125 z"
         style="fill:#550000;fill-opacity:1;stroke:none"
         inkscape:connector-curvature="0" />
      <path
         style="fill:#2b0000"
         inkscape:connector-curvature="0"
         id="path3663"
         d="m -817.533,395.44038 c -4.1744,14.271 -6.215,26.638 -4.2312,44.427 8.3738,-17.288 19.962,-27.077 31.029,-38.081" />
      <path
         style="fill:#2b0000"
         inkscape:connector-curvature="0"
         id="path3665"
         d="m -816.123,562.57038 c 1.0112,-12.454 -0.96603,-23.115 4.2312,-38.081 1.7778,12.275 9.7224,21.466 16.925,31.029" />
      <path
         style="fill:#2b0000"
         inkscape:connector-curvature="0"
         id="path3661"
         d="m -749.833,324.92038 c 0,0 15.264,7.0718 23.271,6.3468 12.461,-1.1282 33.849,-16.219 33.849,-16.219 0,0 -17.634,-8.2115 -26.797,-7.0519 -11.484,1.4532 -30.323,16.925 -30.323,16.925 z" />
    </g>
  </g>
</svg>
